<!-- Generator: Adobe Illustrator 19.2.1, SVG Export Plug-In  -->
<svg version="1.1"
	 xmlns="http://www.w3.org/2000/svg" xmlns:xlink="http://www.w3.org/1999/xlink" xmlns:a="http://ns.adobe.com/AdobeSVGViewerExtensions/3.0/"
	 x="0px" y="0px" width="368.352px" height="386.002px" viewBox="0 0 368.352 386.002"
	 style="enable-background:new 0 0 368.352 386.002;" xml:space="preserve">
<style type="text/css">
	.st0{fill:#0D825D;}
</style>
<defs>
</defs>
<g id="RnUpJI.tif_1_">
	<g>
		<path class="st0" d="M216.29,96.536c-1.282,41.753-4.942,79.422-18.584,115.601c-7.245,19.215-16.93,36.873-28.931,53.376
			c-12.722,17.496-23.865,17.537-36.911,0.359c-32.798-43.185-29.927-87.963-6.051-133.699
			c7.075-13.552,16.168-25.666,26.181-37.169c20.626-23.696,35.498-50.045,37.692-82.254c0.253-3.709,1.83-7.327,3.258-12.749
			c32.687,44.078,60.117,89.051,69.937,142.715c7.484,40.9,2.205,79.199-24.151,112.909c-7.823,10.005-16.951,18.682-26.772,26.739
			c-13.238,10.86-24.719,23.133-30.693,39.754c-6.921,19.254,2.535,34.056,22.943,35.189c27.004,1.499,50.145-8.93,70.927-24.697
			c45.664-34.646,69.949-80.498,65.955-138.329c-3.527-51.077-27.584-91.989-71.122-119.261
			c-15.738-9.858-25.761-22.254-32.98-38.951c5.942-3.091,10.818,0.998,15.487,2.814c63.434,24.683,115.808,89.077,115.878,170.862
			c0.067,78.602-59.84,155.266-131.16,172.259c-16.732,3.987-33.194,5.958-49.868,1.275c-23.518-6.605-41.445-25.498-30.781-59.566
			c4.171-13.326,10.996-25.298,18.943-36.649c22.597-32.278,39.008-67.334,44.437-106.527
			C223.633,153.744,223.563,126.684,216.29,96.536z"/>
		<path class="st0" d="M160.568,27.671c1.673,0.876,8.281-3.75,7.668,2.742c-0.656,6.947-0.039,15.832-10.703,18
			c-18.538,3.77-36.535,9.029-53.591,17.813c-52.882,27.233-82.548,70.126-86.54,129.364c-1.76,26.117,5.008,51.257,17.295,74.75
			c3.057,5.845,5.8,6.598,10.904,3.172c8.347-5.603,15.602-2.185,22.527,3.124c10.353,7.936,21.112,15.406,30.903,23.982
			c4.92,4.309,15.794,6.438,9.668,17.562c-0.448,0.814,2.74,3.988,4.608,5.649c4.227,3.758,8.882,7.048,12.986,10.927
			c3.202,3.026,8.954,6.054,3.251,11.46c-4.636,4.395-8.54,1.146-12.303-2.074c-4.631-3.962-9.867-7.314-14.03-11.699
			c-4.416-4.651-6.64-2.866-10.163,1.049c-11.743,13.047-11.724,12.679,2.098,23.79c5.272,4.238,15.966,8.743,9.425,16.668
			c-6.075,7.36-11.292-3.443-17.02-6.127c-6.379-2.989-9.886-15.047-20.236-6.963c-0.404,0.315-2.836-1.64-4.09-2.791
			c-12.844-11.793-25.555-23.732-38.481-35.435c-7.832-7.091-8.199-15.432-2.698-23.243c4.957-7.037,3.222-12.629-0.249-19.031
			C-35.568,174.548,25.529,56.399,143.954,29.908C148.948,28.791,153.74,25.833,160.568,27.671z"/>
	</g>
</g>
</svg>